<svg xmlns="http://www.w3.org/2000/svg" viewBox="0 0 352 240.17"><defs><style>.cls-1{fill:#fce3e9;}.cls-2{fill:#fff;}.cls-2,.cls-3{stroke:#1f475c;stroke-linecap:round;stroke-linejoin:round;stroke-width:2px;}.cls-3{fill:none;}</style></defs><title>Asset 3</title><g id="Layer_2" data-name="Layer 2"><g id="artwork"><polygon class="cls-1" points="351 240.17 1 240.17 1 15 351 0 351 240.17"/><path class="cls-2" d="M1,64.19c41.65,13.6,92.51,29,119.39,32.53,2.78.37,10.49,4.28,19.63,3.51,16.46-1.41,29.47-17.12,40.84-10.14l7.51,24.85s26.28,15.07,28,16.82,38.46,20.81,31.89,35c-4.21,9.11-17.87,6.66-21.73,4.91,0,0,6.23,8,.35,15.06-5.56,6.68-13.85.41-19.44-4.38a57.47,57.47,0,0,0-5.78-4.38s17.52,9.82,9.11,20-23.48-9.11-23.48-9.11,15.88,12.8,7.36,19.62c-5.26,4.2-14.72-1.05-14.72-1.05s-61.75-36.33-69-45.2C102.47,151.93,47.45,146,1,141.34"/><path class="cls-2" d="M351,62C323.34,71.68,283.81,84,255,86.91c-5.58.56-16.11,4.56-20.33,4.56-30.48,0-48.56-4.29-52.56-2.11-3,1.63-7.82,5.87-13.66,9.46-9.25,5.7-17.87,9.11-18.92,14.37-1.17,5.85,1.6,7.37,2.45,27,.17,4,.82,6.57,2.8,8.06,6,4.53,18.48-2.8,19.27-25.23,0,0,13.32-3.5,14.37-8.06,0,0,22.25,13.84,32.76,19.8A109.14,109.14,0,0,1,245.31,154s15.94-10,15.59-13.14L351,123.93"/><path class="cls-2" d="M153.83,132.27l7.62-2.38,1.85,10.3a4.92,4.92,0,0,1-3.44,5.59h0a4.93,4.93,0,0,1-6.32-4.88Z"/><path class="cls-2" d="M117.59,168.9s-8.43,11.27,4.56,17.17c3.85,1.76,9,.6,10.51-4.55.7-2.45,2.45-9.11-12.27-11.21Z"/><path class="cls-2" d="M153.33,173.81c-5.17-4.26-10.34-1.77-15.42,2.1-4.23,3.23-8.77,7.48-7.71,13.32,2.11,11.56,15.77,9.11,20.68,2.45S159.29,178.71,153.33,173.81Z"/><path class="cls-2" d="M173.65,185c-4.7-6.8-9.85-4.13-15.76-.35-6.38,4.07-12.84,10.21-11.57,13.67,2.46,6.65,6.24,8.06,13.67,8.06,1.26,0,4.08-2.67,7.36-5.61C172.27,196.38,177.44,190.49,173.65,185Z"/><path class="cls-2" d="M159.46,206.4c-.52,0,5.43,9.81,13.84,6.3,9.86-4.1,9.81-14,6-16.47s-6.75-.94-6.75-.94S163.9,206.4,159.46,206.4Z"/><path class="cls-2" d="M169.1,202.19l4.2,3.86,1.83-1a3.35,3.35,0,0,0,.73-5.39h0A3.35,3.35,0,0,0,171,200Z"/><path class="cls-2" d="M159.64,190.28l4.9,5.6,4.82-3.14a4.5,4.5,0,0,0,.94-6.7h0a4.49,4.49,0,0,0-6.71-.09Z"/><path class="cls-2" d="M140.37,181.87l5.6,5.25,4.45-3.41a4.72,4.72,0,0,0,.14-7.36h0a4.72,4.72,0,0,0-6.84.86Z"/><path class="cls-2" d="M121.62,178.54l3.85,4.2h0a2.83,2.83,0,0,0,.71-4.4l0,0a2.84,2.84,0,0,0-3.79-.35Z"/><path class="cls-3" d="M212.72,153.31c-.7,3.86-1.4,8.41,13.67,18.22"/><path class="cls-3" d="M213.08,159.05s3-1.74,12.26,6.17a39.68,39.68,0,0,0,6.66,4.21"/></g></g></svg>