<svg xmlns="http://www.w3.org/2000/svg" viewBox="0 0 351 293.94"><defs><style>.cls-1{fill:#e2f5fb;}.cls-2{fill:#fff;}.cls-2,.cls-3{stroke:#1f475c;stroke-linecap:round;stroke-linejoin:round;stroke-width:2px;}.cls-3{fill:none;}</style></defs><title>Asset 9</title><g id="Layer_2" data-name="Layer 2"><g id="artwork"><polygon class="cls-1" points="351 293.94 1 293.94 1 68.78 351 128.73 351 293.94"/><path class="cls-2" d="M1,189.8s126-15.42,129.5-14.44c9.07,2.52,45.35,3,66.52-5l-2,2a18.69,18.69,0,0,0,1.51,3.53c.51.5,9.3.78,10.58-.51,2.52-2.52,10.57-6.09,7.56-13.1-1.51-3.52-14.61-9.57-14.61-9.57a67.31,67.31,0,0,1,8.57,4.53c2.31,1.49,6,4.54,6,4.54,1.31.27,4-1,5-2,3-3,4.76-8.64,2.49-12-1.48-2.16-18-9.75-18.61-10.22,0,0,17.13,8.57,18.9,8.21,3.26-.65,9.33-4,6.29-14.26,0,0,2-5,2-13.6s-4-14.11-13.61-14.11c-6.55,0-20.32,1.73-26.2,0-8.57-2.52-16.12,1-18.14,2s-9.16-1-29.23,13.1c-5,3.52-90.19,11.84-142.6,12.85"/><path class="cls-2" d="M197,110.36l9.07,10.08s14.76,2,22.75,11.34"/><path class="cls-2" d="M169,106.52l-3.7-7.25s-4.53-2-7.05,3l2.57,6.72S166.62,106.72,169,106.52Z"/><path class="cls-2" d="M187.37,103.08s3.61-13.5,17.21-12.37c12.09,1,13.43,13.11,13.43,13.11l6.47,1.49s1.31-19.89-21.42-21.15c-18.14-1-23.16,19.24-23.16,19.24"/><path class="cls-2" d="M165.27,99.27l-2.52-2S147.63,66,147.13,45.36s1-35.78,19.65-36.28v-4s-24.69-3-24.69,31.24c0,28.72,16.63,62.48,16.63,62.48l-.5,3S160.74,97.26,165.27,99.27Z"/><path class="cls-2" d="M166.78,4s-.5,6,1,6.55l3-.51,6.05,1s4.49-.92,4-5.54c-.5-5-5.54-4.54-5.54-4.54l-5.54,2.52Z"/><path class="cls-2" d="M180.08,3.09a3.48,3.48,0,0,0,.43,5.16h0a4.9,4.9,0,0,0-.42-5.15Z"/><path class="cls-2" d="M218.55,104s2.65-2.16,4.17-1.65,3.92,1.6,3.47,4.08h0a13.39,13.39,0,0,0-6.58-2.35Z"/><path class="cls-2" d="M234.81,16.13c9.07,1,23.18,3,14.61,34.27a140,140,0,0,1-27.21,51.9l4,1.51s22.83-27.68,28.73-59c6.55-34.77-20.16-32.75-20.16-32.75Z"/><path class="cls-2" d="M234.81,10.59h-3l-5.55-2.52s-5.54-.51-5.54,4.53,5,5.55,5,5.55l5.54-1.52,3.53.51Z"/><path class="cls-2" d="M221.28,10.2a3.2,3.2,0,0,1-.08,4.42h0a3.6,3.6,0,0,1-.12-4.12Z"/><path class="cls-2" d="M186.68,173.38s26.14,47.66-5.28,52.37c-10.08,1.52-17.33-10.93-17.14-23.68s5.28-26,5.28-26l-7.13.57s-7,16.7-5.2,31.47c1.66,13.65,11.58,25.51,24.19,24.18,19.14-2,23.35-19.61,22.67-27.71a98.13,98.13,0,0,0-9.51-33.39Z"/><path class="cls-2" d="M185.65,173.61s-7.28,35-9.29,68.77a14.35,14.35,0,0,0,8.06.51s3.85-52.84,6.71-59.93l-4-9.7Z"/><path class="cls-2" d="M176.36,242.38l1,2.52v8.57h4.54l.5-8.06,2-2.52h0a9.88,9.88,0,0,1-7.88-.42Z"/><path class="cls-2" d="M185.43,249.94c-8.55-.61-16.63,8.57-15.62,20.66s9.57,13,14.11,13.1c5.9.15,13.1-7.05,13.1-17.63S192.48,250.45,185.43,249.94Z"/><path class="cls-2" d="M175.09,281.39c-7.3-.21-15.36-5.25-11.83-20.87,2.91-12.9,14.1-11.8,14.1-11.8v3.61s-7.08,4.58-7.57,15.46S175.09,281.39,175.09,281.39Z"/><path class="cls-2" d="M185.43,254.48c-8-.81-12.1,8.56-11.59,15.11s4.53,11.59,11.59,9.58,8-12.6,7.56-16.63C192.67,259.49,190.47,255,185.43,254.48Z"/><path class="cls-2" d="M173.19,279.61S162.11,277,165,262.33c2.33-11.66,12.32-11.73,12.32-11.73v-1.67s-12.09-1.75-14.61,14.25,8.12,17.92,12.6,18.51Z"/><ellipse class="cls-2" cx="182.24" cy="266.67" rx="2.91" ry="2.36" transform="translate(-103.81 416.67) rotate(-83.32)"/><polyline class="cls-3" points="214.27 122.47 212.97 119.86 206.12 120.51"/></g></g></svg>