<svg xmlns="http://www.w3.org/2000/svg" xmlns:xlink="http://www.w3.org/1999/xlink" viewBox="0 0 350 295.21"><defs><style>.cls-1,.cls-5{fill:none;}.cls-2{fill:#e2f5fb;}.cls-3{clip-path:url(#clip-path);}.cls-4,.cls-6{fill:#fff;}.cls-5,.cls-6{stroke:#1f475c;stroke-linecap:round;stroke-linejoin:round;stroke-width:2px;}</style><clipPath id="clip-path" transform="translate(0 -5.73)"><polygon class="cls-1" points="350.32 263.9 0.32 263.9 22.5 15 350.32 0 350.32 263.9"/></clipPath></defs><title>Asset 6</title><g id="Layer_2" data-name="Layer 2"><g id="artwork"><polygon class="cls-2" points="350 258.44 0 258.44 0 60.52 350 33.27 350 258.44"/><g class="cls-3"><polygon class="cls-4" points="214.62 103.97 202.09 126.64 190.14 139.91 184.44 139.98 176.41 135.25 163.55 146.73 155.13 148.43 151.41 143.74 142.72 145.44 138.25 148.92 129.9 139.91 148.65 107.2 174.75 51.33 200.31 13.98 331.86 0 231.35 54.39 219.98 82.5 214.62 103.97"/><path class="cls-5" d="M130.16,136.88c-.63.61-.86,17.28,8.09,17.77,2.12.12,4.47-1.58,4.47-3.47,0-.5-4.47-.5-4.47-6.46,0-5.06,3.55-10.53,3.55-10.53s-9,13,.92,17c3.62,1.45,8.75-3.87,14.4-10.93,4.32-5.41,9.21-11.74,12.42-17.39A54.61,54.61,0,0,0,175,110c-8.94,28.81-32.79,38.24-19.87,44.21,6.46,3,20.12-9.87,27.32-21.36,6.37-10.16,8.74-20.4,9.44-20.87,1.49-1,3,1.49,3,1.49-.91,2.76-7.12,22.22-13.15,20.52l-5.31,7c1,2.08,3.42,3.94,8,4.73,14.41,2.49,25.83-30.79,25.83-30.79,14.41-12.92,6.95-38.75,21.86-52.66,4.28-4,52.92-31,92.13-52.44" transform="translate(0 -5.73)"/><path class="cls-5" d="M193,163.59s-23.57-37.55-35.63-44c-27.52-14.61-28.62,44.51-28.62,44.51" transform="translate(0 -5.73)"/><polygon class="cls-6" points="68.26 158.93 244.62 157.42 251.41 285.55 226.16 294.21 60.35 294.21 68.26 158.93"/><polygon class="cls-6" points="226.16 294.21 232 157.53 244.62 157.42 251.41 285.55 226.16 294.21"/><polygon class="cls-6" points="251.41 285.55 227.21 269.53 226.16 294.21 251.41 285.55"/><path class="cls-6" d="M238.78,295.61c.19.19-11.49-20.54-11.49-20.54" transform="translate(0 -5.73)"/><path class="cls-5" d="M112,176.34c-1.87-3.53,3.8-5.35,11.39-27.64,6.68-19.63,10.65-32.54,23.74-27.89,22.24,7.91,25.54,45.36,35.34,54" transform="translate(0 -5.73)"/><circle class="cls-6" cx="182.45" cy="169.1" r="1.88"/><circle class="cls-6" cx="111.98" cy="169.86" r="1.88"/><path class="cls-6" d="M200.31,19.71C188.84,28.42,180.56,35.05,180,35.44c-1.49,1-30.82,29.7-33.28,43.21-1,5.47-2.38,11.73-3,13.42-2.48,7-9.94,16.39-8.94,28.81,0,0-6.46,9.93-6.46,13.41s7.95,5.46,12.42,1,11.15-12,11.92-18.87c.5-4.48,6.95-11.93,6.46-15.9s32.28-14.41,36.26-34.27" transform="translate(0 -5.73)"/><path class="cls-6" d="M134.77,120.88l4.47,3.47-3,6.56a5.75,5.75,0,0,1-5.23,3.38h-2.75c0-2,1.69-5.17,3.05-7.52Z" transform="translate(0 -5.73)"/><path class="cls-6" d="M187.89,129.55c-1.76,4.95-6.18,4.49-6.18,4.49-1-1-4.9,0-5.47,4-.49,3.48,1.53,4.72,2.51,5.59a12.44,12.44,0,0,0,13.71,0" transform="translate(0 -5.73)"/><path class="cls-5" d="M174.75,109.7s7,0,9.94,1.49" transform="translate(0 -5.73)"/><path class="cls-5" d="M194.62,113.18s6.46-1,10.93,1" transform="translate(0 -5.73)"/><path class="cls-5" d="M185.66,132.4s5-.84,9,6.11" transform="translate(0 -5.73)"/></g></g></g></svg>