<svg xmlns="http://www.w3.org/2000/svg" viewBox="0 0 351 240.72"><defs><style>.cls-1{fill:#e2f5fb;}.cls-2{fill:#fff;stroke:#1f475c;stroke-linecap:round;stroke-linejoin:round;stroke-width:2px;}</style></defs><title>Asset 2</title><g id="Layer_2" data-name="Layer 2"><g id="artwork"><polygon class="cls-1" points="351 239.92 1 239.92 1 14.76 351 70.33 351 239.92"/><path class="cls-2" d="M214.16,108.61S227.45,91.59,242,74c13.23-16.08,24.37-33.7,36.17-34.68,21.53-1.8,13.16-30.5,13.16-30.5l-8.07,17a17.38,17.38,0,0,1-9.87-.89,16.14,16.14,0,0,1-7.47-6.58L273.35,1c-19.13,8.07-16.49,18.35-18.53,30.2-1.5,8.67-50.83,67.86-55.91,73.24C198.91,104.44,210.59,106.2,214.16,108.61Z"/><path class="cls-2" d="M253,48.24c4.64,2.54-5.8,15.13-16.74,27.8-12.79,14.83-24.93,31.27-24.93,31.27L202.79,105s13-15.56,24.82-31.39C238.15,59.55,248.39,45.7,253,48.24Z"/><path class="cls-2" d="M256.12,20.88c1.09,4.64,4,17.54,26,17.67"/><path class="cls-2" d="M1,239.72s52.91-42.3,72.94-61.13,54.71-39.17,56.2-41.26c.91-1.27,9.91-12.22,17.64-23,5-7,7.88-15,12.56-17.34,1.79-.9,1.17-7.28,18.84-11.06,4.18-.9,25.11-10.47,28.4-9.87s23.92,13.46,26,17c.84,1.44,1.19,5.08,2.39,8.37,1.8,4.94,4.78,9.27,2.69,11.36-4.78,4.79-13.15-.89-17.64-9.26,0,0-2.39.59-14.05-7.78,0,0-6.88,5.38-14.65,4.49l1.2,3.29s22.12,2.39,24.81,8.67-2.69,24.21-4.48,25.71c0,0-1.2-3.29-14.35-8.37l-.6-2.1s-17.34-6.27-19.14-7.47a118.39,118.39,0,0,0,19.14,9.57c9.56,3.58,16.07,6.86,15.54,11.06-1.19,9.57-6.27,10.16-6.87,10.76s-7.18,4.19-7.18,4.19-2.17-3.69-11.36-7.78a7.12,7.12,0,0,1-3.59-3.28l-.59,2.39s17.5,4.69,16.14,12.55c-1.49,8.67-8.1,9.77-11.06,9.27-1.8-.3-1.8.9-3.29.9s-13.75-3-13.75-3-3.29,2.69-4.19,3.59-2.69,11.66-18.24,14.35A17.46,17.46,0,0,1,140,188.45s-17,6.28-54.11,50.23"/><path class="cls-2" d="M172.9,166.63a11.81,11.81,0,0,0,1.49-1.79c.3-.6,1.4-.25,3.29-1.2.6-.3,3.29,3.29,13.75,4.19"/><path class="cls-2" d="M182.17,165.85a5.14,5.14,0,0,0,2.39,2.87"/><path class="cls-2" d="M198.91,127.46c1.49.6,2.69,1.8,10.46-1.49"/><path class="cls-2" d="M237.47,104.74l-4.18,4.49.75,1.3a2.58,2.58,0,0,0,4,.59h0a2.58,2.58,0,0,0,.66-2.73Z"/></g></g></svg>