<svg xmlns="http://www.w3.org/2000/svg" viewBox="0 0 350 234.93"><defs><style>.cls-1{fill:#fce3e9;}.cls-2{fill:#fff;stroke:#1f475c;stroke-linecap:round;stroke-linejoin:round;stroke-width:2px;}</style></defs><title>Asset 7</title><g id="Layer_2" data-name="Layer 2"><g id="artwork"><polygon class="cls-1" points="350 234.93 0 234.93 0 40.84 350 9.77 350 234.93"/><path class="cls-2" d="M105.89,1s16,34.2,18,49.13c2.15,16.06,10.4,22,10.4,22l-22.08,48.69h-2C102.64,107.19,49.15,37,57.26,5.75"/><polygon class="cls-2" points="323.12 171.78 149.92 190.61 43.33 139.92 209.58 132.1 323.12 171.78"/><path class="cls-2" d="M148.47,67.22c-5.8-2.89-9.19.93-13,3.77-2.43,1.8-2.63,4.61-3.76,5.5-6.66,5.21-11.59,2.9-14.48,6.37s-2.61,10.72-4.64,13-6.66,3.47-6.66,10.42,1.45,14.2.58,16.22.87,15.35,4.63,19.7c2.74,3.16,9.62,4.79,14.73,4.77a44.4,44.4,0,0,1,12.76,1.79c4.27,1.28,9.42,2.73,13.35,3.58,5.39,1.15,11.75-.29,18-.29,5.21,0,8.69.29,8.11-7,0,0,3.48,0,5.5-2.31,0,0,6.67,2.6,10.14-2,.87-1.16,1.74-5.5,1.74-5.5l-3.48-4.35s7.53,6.66,13.33,0-4.35-20.56-4.35-20.56,8.69-9,4.35-17.09S187,88.37,187,88.37l-6.08-1.45s-4.64-4.35-6.38-4.93S158,70.7,156.58,69.83,149.63,67.8,148.47,67.22Z"/><path class="cls-2" d="M178,145.13c-.58-3.18-4.2-2.69-12.45-4.34-5.8-1.16-32.15-9.56-35.34-11.59a34.74,34.74,0,0,1-6.08-5.21"/><path class="cls-2" d="M125.3,101.11s7.66,4,19.4,11.88c16,10.67,36.48,26.65,38.81,29.83"/><path class="cls-2" d="M143.25,86.92c5.22,2,21.34,7.1,37.08,30.7,5.21,7.82,8,11.86,13,14.33"/><path class="cls-2" d="M200.89,110.38c-10.14-9.85-16.39-22.11-25.57-28"/><path class="cls-2" d="M191.33,122.56l6.67-4.94,3.2,3.57a4.49,4.49,0,0,1-.48,6.45h0a4.5,4.5,0,0,1-6.61-.94Z"/><path class="cls-2" d="M182.59,137.5l5.49-5.06,1.17.91a3.84,3.84,0,0,1,.1,6h0a3.85,3.85,0,0,1-5.17-.24Z"/><path class="cls-2" d="M176.9,136.81l-2.08,4.27,2.28,1.27a4.84,4.84,0,0,0,5.49-.56h0Z"/><path class="cls-2" d="M168.59,144.12v5.41h2.67A2.54,2.54,0,0,0,173.8,147h0a2.55,2.55,0,0,0-2.25-2.53Z"/><path class="cls-2" d="M191.33,99.46h0a2.54,2.54,0,0,1,2,.73l5.4,5.4a2.52,2.52,0,0,1,.65,2.42l-.17.66S191.62,100.72,191.33,99.46Z"/><path class="cls-2" d="M140.36,43.76l19.8,28.54L147.9,67,134.28,47h0A3.66,3.66,0,0,1,140,43.49Z"/><path class="cls-2" d="M145.87,51.71s-4.74-.77-6,3.46l-4.42-6.49s1.36-3.56,6.17-3.08Z"/><path class="cls-2" d="M203,132.83l5.38,8,6.37,15.35-12.45-11-10.43-14.48S197.66,136.16,203,132.83Z"/><path class="cls-2" d="M207,138.72l-.32,1.37a1.67,1.67,0,0,1-1.62,1.28h0a1.67,1.67,0,0,0-1.61,1.26l0,.11a1.64,1.64,0,0,1-1.17,1.2l-.66.18"/><path class="cls-2" d="M212.51,150.64a1.83,1.83,0,0,0-1.1,2.51l3.38,3Z"/></g></g></svg>