<svg xmlns="http://www.w3.org/2000/svg" viewBox="0 0 352.83 249.07"><defs><style>.cls-1{fill:#fce3e9;}.cls-2{fill:#fff;stroke:#1f475c;stroke-linecap:round;stroke-linejoin:round;stroke-width:2px;}</style></defs><title>Asset 8</title><g id="Layer_2" data-name="Layer 2"><g id="artwork"><polygon class="cls-1" points="350 249.07 0 249.07 0 23.9 350 39.57 350 249.07"/><polygon class="cls-2" points="263.48 6.22 63.17 1 65.52 175.38 263.47 173.86 263.48 6.22"/><polygon class="cls-2" points="187.22 4.05 189.57 75.9 173.08 75.9 169.71 74.89 168.37 75.9 158.27 75.9 158.27 73.55 156.25 75.9 147.83 75.9 145.64 3.24 187.22 4.05"/><path class="cls-2" d="M350.49,75.9s-25.92,4.71-43.43,13.8c-24.8,12.88-79.23,32.88-102,30-13.13-1.68-26.26-8.41-28.95-8.75-5.39-.67-17.17,3-25.92.34-1-.3-2.84-.41-3.71-.67-6.81-2.06-9-2.71-9.42,2.69-.34,4.71,12.28,14.59,24.24,11.78,5.72-1.35,7.4,4.38,5.38,7.07s-14.47,18.18-19.19,20.54-37.5,15.41-32.31,24.23c3.36,5.73,16.49-4,19.52-5s8.42-1.68,12.79-5.05,7.07-4.37,8.76-1.34-10.1,9.76-10.1,9.76h-3.37S144.12,187,152.54,187c3.71,0,16.5-12.45,16.5-12.45l-11.45,10.1s1.34,4,6.74,4c1.32,0,5.3-3,9.09-5.39a63.73,63.73,0,0,1,6.05-3.37l-5.38,3s2.36,6.06,7.4,5.05,9.77-6.06,11.11-6.39,4.08-2.19,6.4-6.06c1-1.69,10.38-2.05,19.52-17.85,3.71-6.39,9.09-5.72,13.47-5.72s67.66,1.35,119.84-19.86"/><path class="cls-2" d="M147.84,110.83,146.15,116l-2.79-.76a5.15,5.15,0,0,1-3.69-6l0-.15a17.57,17.57,0,0,1,3.42.48C145.14,110.07,147.31,111,147.84,110.83Z"/><path class="cls-2" d="M120.23,171.84l2.69,4-2.38,1.39a2.64,2.64,0,0,1-3.66-1.08h0a2.63,2.63,0,0,1,1.45-3.67Z"/></g></g></svg>