<svg xmlns="http://www.w3.org/2000/svg" xmlns:xlink="http://www.w3.org/1999/xlink" viewBox="0 0 854.29 681.24"><defs><style>.cls-1,.cls-18,.cls-21{fill:#a9e2f2;}.cls-2{fill:#e4f6fb;}.cls-3{clip-path:url(#clip-path);}.cls-14,.cls-16,.cls-4{fill:#fff;}.cls-5{fill:#fbbb76;}.cls-6{fill:#58b49b;}.cls-7{fill:#60c2ac;}.cls-8{fill:#e5958a;}.cls-9{fill:#df7a6d;}.cls-10{fill:#1f475c;}.cls-11{fill:#f9a349;}.cls-12{fill:#f68e22;}.cls-13{fill:#a75c52;}.cls-14{stroke:#70ceea;}.cls-14,.cls-15,.cls-16,.cls-18,.cls-20{stroke-linecap:round;stroke-linejoin:round;}.cls-14,.cls-15,.cls-18,.cls-20,.cls-21{stroke-width:2px;}.cls-15{fill:#d1eff8;stroke:#edf9fc;}.cls-16{stroke:#d1eff8;}.cls-17{fill:#80cebd;}.cls-18,.cls-20,.cls-21{stroke:#fff;}.cls-19{fill:#fdd8b1;}.cls-20{fill:none;}.cls-21{stroke-miterlimit:10;}</style><clipPath id="clip-path"><path class="cls-1" d="M634.32,160.31C656.15,252.61,595,339,430.55,307.77c-62.25-11.82-29.1,62-119.71,80-73,14.5-225.88-95.5-157.58-277.26C197.65-7.59,373-41.6,456.71,60.64,492,103.72,600.5,17.34,634.32,160.31Z"/></clipPath></defs><title>Asset 3</title><g id="Layer_2" data-name="Layer 2"><g id="artwork"><path class="cls-2" d="M4.4,343.14c-39.57-197.87,197-319.07,337.92-291.26,83.11,16.4,109.39,83.7,135.88,84.35,59.7,1.46,78.51-70.82,217.55-47.8,54.49,9,138,60.51,149.28,207.2,7.55,97.87-69.34,202.13-265.3,247.38-102.33,23.63-186.41,34.6-255.34,35.73C124,582,23.24,437.29,4.4,343.14Z"/><path class="cls-1" d="M634.32,160.31C656.15,252.61,595,339,430.55,307.77c-62.25-11.82-29.1,62-119.71,80-73,14.5-225.88-95.5-157.58-277.26C197.65-7.59,373-41.6,456.71,60.64,492,103.72,600.5,17.34,634.32,160.31Z"/><g class="cls-3"><path class="cls-4" d="M690.87,356.37h-452c-3.25,0-6.52.09-9.77,0-.57,0,.58,1.16.57.53s0-1.12,0-1.67c.21-2.68,0-5.46,0-8.14v-245a9.28,9.28,0,0,0,0-2.47c-.42-1.27.76-.37-.74-.1a12.39,12.39,0,0,1,2.11,0h456.8c1,0,2-.07,2.92,0,.28,0-.6-1.21-.63-.46s0,1.2,0,1.8V357.12a.75.75,0,0,0,1.5,0V98.78a.76.76,0,0,0-.75-.75h-455c-1.9,0-4.31-.4-6.18,0a4.49,4.49,0,0,1-.82,0,.76.76,0,0,0-.75.75V357.12a.76.76,0,0,0,.75.75h455c1.89,0,4.33.42,6.18,0a3.75,3.75,0,0,1,.82,0A.75.75,0,0,0,690.87,356.37Z"/><path class="cls-4" d="M702.39,369.1H224.73c-1.88,0-3.86-.19-5.73,0-2,.21-1-.45-.86.65-.44-5.06,0-10.37,0-15.45V89.57a10.45,10.45,0,0,0,0-2.68c-.4-1.25.73-.37-.74-.09a12.73,12.73,0,0,1,2.31,0H686.3c4.6,0,10.06.82,14.61,0,2-.35.79.53.73-.58.08,1.65,0,3.32,0,5V369.85a.75.75,0,0,0,1.5,0V86.05a.76.76,0,0,0-.75-.75H224.73c-2,0-4.54-.42-6.51,0a3.84,3.84,0,0,1-.83,0,.76.76,0,0,0-.75.75v283.8a.76.76,0,0,0,.75.75H695.05c2,0,4.55.42,6.51,0a4.6,4.6,0,0,1,.83,0A.75.75,0,0,0,702.39,369.1Z"/><path class="cls-4" d="M386.45,120.93l5.16-2.89c.46-.26,4.73-3.05,5.17-2.89,1.66.57,0,8.74-.12,10.39a.5.5,0,0,0,.85.35c2.47-2.65,5-5.2,7.75-7.59,1.7-1.51,1.72-2.11,2.62-.23.77,1.58.16,4.89.1,6.61a.51.51,0,0,0,.86.35c1.56-1.64,3.8-4.7,5.88-5.58,4.37-1.85,3,3.61,2.37,6.3-.14.63.82.9,1,.27a26.81,26.81,0,0,0,.36-9.82.5.5,0,0,0-.74-.29c-2.45,1.81-4.6,4-7,5.84-1.72,1.3-1.29,2-1.61-.85-.22-1.87-.23-3.78-.45-5.66a.5.5,0,0,0-.85-.35c-3,2.46-5.62,5.49-8.64,7.87-1.71,1.34-1.29,1.68-1.08-1.15.19-2.62.49-5.24.73-7.86a.5.5,0,0,0-.75-.43l-12.06,6.75c-.56.31-.05,1.17.51.86Z"/><path class="cls-4" d="M428.24,122.49c2.71-1.74,7.55-6.3,4.88-10-2.46-3.42-5.51.61-6.19,3.12-.82,3-2.18,10.79,2.35,11.55,5.09.86,9.55-6.48,10.78-10.32l-1-.26a46.35,46.35,0,0,0-1,11.51.5.5,0,0,0,.93.26,42.25,42.25,0,0,1,7.36-10.13c1.85-1.86,2.42-3.23,2.53,0,.07,2-.33,4.12-.31,6.18.05,3.94,2.25,4.21,5.13,1.79.49-.41-.22-1.11-.71-.7q-3.85-.25-3.33-2.86l.13-2.65.27-5.29a.51.51,0,0,0-.86-.36,44,44,0,0,0-7.76,8.08c-.54.75-2.45,3.79-2.51,3.76-.95-.44.93-8.55,1.07-9.35a.5.5,0,0,0-1-.26c-1.14,3.55-10,15-11.75,4.79-.21-1.22-.09-5,.68-6.08q6.68-3.09,4,2.12a11.27,11.27,0,0,1-4.3,4.23c-.54.34,0,1.21.5.86Z"/><path class="cls-4" d="M458.48,114.5c0,1.92-1.61,10.52,1.48,11.23s8.05-7.17,9.5-9.24l-.93-.25c.36,2.75.47,5.68,1.1,8.38.22,1,.29,1.9,1.25,2.46,2.29,1.34,8.27-1.64,10.54-2.25a.5.5,0,0,0-.27-1c-1.34.37-7.16,2.88-8.45,2.31-1.55-.69-2.19-3.47-2.52-4.94s-.44-3.38-.65-5a.5.5,0,0,0-.93-.26c-1.43,2-3.85,6.27-6.28,7.3-3.15,1.35-2.81-1.61-2.82-3.59l0-5.19a.5.5,0,0,0-1,0Z"/><path class="cls-4" d="M264.31,143.14c0,2-.09,1.51.77,3.27a.75.75,0,0,0,1,.27c6.6-3.46,15.42-10.21,23.18-9.79,7.31.39,7.11,9.34,13.58,10.78,2.23.49,4.48-.29,6.57-1,4.2-1.37,7.61-2.24,12.07-2,5.67.31,11.12,1.31,16.11-2,.8-.53.05-1.83-.76-1.29-6.53,4.32-14.25.82-21.43,1.89-3.25.48-6.15,2.37-9.4,2.71-5.56.59-6.75-3.27-9.45-6.75-3-3.83-7.2-4.49-11.74-3.33a35.46,35.46,0,0,0-7.13,2.94c-1.77.9-3.53,1.85-5.29,2.78-.85.44-6.6,4.53-6.6,1.46a.75.75,0,0,0-1.5,0Z"/><path class="cls-4" d="M262.44,171.86l24.51-4.5c3.31-.6,4.95-1.28,8.46.82,1.08.65.92,1.14,2.08,1.81a11.77,11.77,0,0,0,6.27,1.15c7.65-.24,15.43-1.26,23.05-2.1a86.77,86.77,0,0,0,20.84-4.53c.9-.34.51-1.79-.39-1.45-7.74,2.88-15.8,4-24,4.84-3.83.37-7.66.7-11.49,1s-8.17,1.38-11.82.21c-2.71-.86-4-3.67-6.84-4.15-2.06-.34-4.63.55-6.58.91L262,170.41c-1,.18-.54,1.62.4,1.45Z"/><path class="cls-4" d="M260,197.16a23.5,23.5,0,0,0,22.86,2.77c2.17-.93,4.07-2.34,6.19-3.37,4.55-2.2,7.92,1.49,10.73,4.66a11.18,11.18,0,0,0,8.7,3.76c4.16-.08,6.68-3.2,10.47-4s4.84.94,8.12,2.28a26.5,26.5,0,0,0,5.6,1.58,27.94,27.94,0,0,0,22.24-5.93c.75-.6-.31-1.66-1.06-1.06A26.33,26.33,0,0,1,325.78,201c-2.69-1.34-5-3.72-8.16-2.46a10.55,10.55,0,0,0-2.56,1.94c-2.77,2.28-5.95,3.79-9.65,2.58-6.75-2.22-7.2-11.79-15.7-8.49-4.81,1.88-8.37,5.05-13.77,5.56a22.31,22.31,0,0,1-15.19-4.3c-.79-.56-1.54.74-.76,1.3Z"/><path class="cls-4" d="M263.79,241.16a17.82,17.82,0,0,1,16.36-3.48,18.62,18.62,0,0,1,7.39,4.39c1.19,1,2.16,2.5,3.89,2.61,3,.19,4.75-3.25,6.58-5.06,5.28-5.23,9.41-.28,14.67,1.61a26.06,26.06,0,0,0,20.75-1.83,24.65,24.65,0,0,0,4.3-3c1.13-1,2.3-3.11,3.53-3.82,3-1.72,10.67,8.09,12.66,10.58.61.75,1.66-.31,1.06-1.06A61.73,61.73,0,0,0,342.05,230a.75.75,0,0,0-1,.27,24,24,0,0,1-23.16,10.58c-4.73-.59-7.69-3.09-11.84-5a6.4,6.4,0,0,0-6.5.43,15.55,15.55,0,0,0-3,2.7c-.63.66-1.34,2-2.17,2.48l-4.68.57-1-1.09c-2.82-1.78-4.67-3.82-8.06-4.77a19.34,19.34,0,0,0-17.81,3.86c-.74.62.32,1.68,1.06,1.06Z"/><path class="cls-4" d="M263.4,278.58c2.42-3.47,5.06-7.21,9.34-8.33,4.91-1.29,8.74,1.79,13.06,3.6,4.62,1.95,10.63,3.53,15.69,2.64,2.76-.48,3.73-1.83,5.74-3.62,4.6-4.11,8.87-3.46,14.1-1.08s10.4,5.53,16.29,3.1c.88-.36.49-1.82-.4-1.45-8.31,3.43-14.82-4.89-22.9-5.24a9.61,9.61,0,0,0-6.05,1.63c-2.36,1.64-3.35,4.24-6.43,5.11-2.46.7-5.95.1-8.37-.35-4.29-.79-8-2.62-11.94-4.46-2.46-1.16-4.95-2.11-7.71-1.79-5.37.61-8.85,5.38-11.72,9.48-.55.79.75,1.54,1.3.76Z"/><path class="cls-4" d="M275.24,300.31a26.8,26.8,0,0,1,16.68-6c6.57-.06,11.13,2.88,17,5.34a18,18,0,0,0,11.27,1.09c6-1.43,12.18-6.74,18.3-2.48.79.55,1.54-.75.75-1.3-4.21-2.92-8.74-1.79-13.21,0-4.3,1.73-8.32,3.46-13.09,2.44-3.58-.77-6.6-2.91-9.91-4.35a28.19,28.19,0,0,0-28.82,4.23c-.75.6.32,1.65,1.06,1.06Z"/><path class="cls-4" d="M261.4,335.17c9.14,1.13,18.28,2.47,27.44,3.4,5.92.59,9.21-.94,12-6.27.69-1.33,1.08-2.93,1.89-4.18,1.86-2.86,4.87-3.05,7.85-2.11,4.33,1.35,8.11,3.93,12.24,5.73,5.37,2.36,11.16,3.35,16.42.26a.75.75,0,0,0-.76-1.3c-8.65,5.08-17.09-1.91-24.92-5.18-3.2-1.34-8.22-3.45-11-.34-1.64,1.85-2.17,4.8-3.34,6.94-2.91,5.31-6.92,5.36-12.34,4.71-8.49-1-17-2.11-25.48-3.16-.95-.11-.95,1.39,0,1.5Z"/><path class="cls-4" d="M388,147.48a31.81,31.81,0,0,0,14.27,2.26c2.59-.21,5.73-1.61,8.22-1.37,3.13.3,5.19,2.29,7.95,3.38,7.25,2.84,15.35-.64,22.71-1.09,5.65-.35,9.07,1.89,13.85,4.41,2.34,1.23,4.85,2.2,7.44,1.09s3.84-3.44,6.74-4.41c2.21-.73,4.76-.78,7.05-1.16a88.72,88.72,0,0,0,16.49-4.46c.9-.33.51-1.78-.4-1.45a88.17,88.17,0,0,1-14.72,4.15c-3.79.71-8.37.6-11.72,2.79s-6.17,4.25-10.12,2.15c-1.81-1-3.44-2.23-5.3-3.1a19,19,0,0,0-9.31-1.51c-8.17.49-16.59,4.3-24.34.09-3.81-2.06-5.27-2.63-9.64-1.85-6.6,1.18-12.4,1.11-18.77-1.36-.9-.35-1.29,1.1-.4,1.44Z"/><path class="cls-4" d="M391.42,175.51c5-.8,8.88,2.68,13.53,3.67a15.13,15.13,0,0,0,8.86-1.18c3.4-1.35,6.71-3.5,10.42-3.81,4.26-.36,7.49,2.73,11.67,2.92,3.68.18,7.21-1.27,10.69-2.23,6.05-1.68,10.16-.45,15.73,1.9A34.21,34.21,0,0,0,486.63,178c.92-.29.53-1.74-.4-1.44a32.49,32.49,0,0,1-16.88,1c-4.54-1-8.44-3.56-12.89-4.71-9-2.34-16.73,5.11-25.65,1.23-5.85-2.54-10.13-.68-15.71,1.76-5.91,2.59-10,2-15.87-.42-2.78-1.15-5.22-1.83-8.21-1.35-.95.15-.54,1.6.4,1.45Z"/><path class="cls-4" d="M385.59,208.7c3.72,7.64,11.53,9.93,19.3,7.47,6.09-1.92,12-5.34,17.7-.33,2.44,2.15,4.6,5.34,8.21,5.36,2.73,0,4.92-1.9,6.81-3.64,1.48-1.36,3.31-3.79,5.38-4.15,3.38-.58,5,2.65,7.43,4.07,3.76,2.22,8.5,1.75,12.65,1.46,6.94-.49,13.88-1,20.82-1.52,1-.07,1-1.57,0-1.5L466,217.22c-6.38.47-12.12,1.34-17.34-3.08-4.94-4.18-8-1.41-12.15,2.36-2.38,2.15-4.34,3.82-7.67,2.35-2.5-1.11-3.67-2.79-5.71-4.53a10.54,10.54,0,0,0-7.9-2.75c-4.27.29-8.12,2.56-12.22,3.59-6.74,1.7-13.07-.86-16.17-7.21-.42-.87-1.71-.11-1.29.75Z"/><path class="cls-4" d="M396.32,259.22c7.05,4.65,16.47,2.69,24.19,1,5.33-1.19,10.22-3.26,15.38-4.91,4.08-1.29,6.2-.7,7.27,3.73.23,1,0,1.91.58,2.8,1.22,1.86,3.08,1.38,5,.85a80.46,80.46,0,0,0,14-5.49c2.29-1.14,2.38-1.29,5.33-1,5.41.6,1-.08,4,1.49a12,12,0,0,0,3.62,1.59c4.41.79,8.67-1.16,13,.45.9.34,1.29-1.11.4-1.45-3.68-1.35-7-.28-10.77-.37a10.52,10.52,0,0,1-4.49-.78c-1.16-.64-1.86-2-2.92-2.73a4.17,4.17,0,0,0-2.49-1c-1.51-.14-2.7.57-4,1.19-3,1.42-6,3-9.09,4.2-1.85.73-6,3.08-7.9,2.68-3-.65-2.41-3.4-3.12-5.39-2.07-5.76-9.66-1.84-13.39-.5-9.51,3.44-24.61,8.43-33.85,2.34-.81-.54-1.56.76-.76,1.29Z"/><path class="cls-4" d="M406.85,290.84a42.2,42.2,0,0,0,18.27-.74c1.74-.47,3.85-1.79,5.6-1.93,2.47-.2,4.9,1.09,6.92,2s3.36,1.6,5.58,1.49c6-.31,10.27-5.37,16-6.49,4.5-.88,5.82,1.76,9.5,2.12,1.33.14,2.39-.5,3.61-.85a8.08,8.08,0,0,1,8.35,1.83c.7.66,1.77-.4,1.06-1.06a9.82,9.82,0,0,0-5-2.69,8.55,8.55,0,0,0-2.81-.05,10,10,0,0,0-2.62.78,7.11,7.11,0,0,1-5.8-1c-5.65-1.36-9.24.28-14.29,3a24.82,24.82,0,0,1-5.27,2.4c-3.75,1-5.63.26-8.72-1.87-1.77-1.23-2.87-1.76-5.07-1.49-3.29.39-6.56,2.37-9.86,3a41.39,41.39,0,0,1-15,.13c-.95-.16-1.35,1.28-.4,1.44Z"/><path class="cls-4" d="M403.83,320.42a46.63,46.63,0,0,0,26.56,4.27,45.92,45.92,0,0,0,8.11-1.89c1.83-.62,5-2.7,6.89-2.81,4.82-.28,7.57,5.42,12.05,6.54,4,1,8.16-.18,11.88-1.54,3.17-1.16,5.9-2.45,8.89,0,.92.76,1.09,1.64,2.32,2.21,2.75,1.26,6.19-.16,8.84-.93a30.72,30.72,0,0,1,20,.74c.91.34,1.3-1.11.4-1.45A31.77,31.77,0,0,0,496,323.43c-4.64.36-10.81,4.08-14.85,1.5-2.48-1.58-3.31-3.81-6.62-3.37-5.1.68-9.23,4.11-14.66,3.82-5.18-.27-6.88-4.71-11-6.53-3.23-1.41-6.15.81-9.11,1.94a44.82,44.82,0,0,1-35.09-1.67c-.87-.41-1.63.88-.76,1.3Z"/><path class="cls-4" d="M535.2,144.44a64,64,0,0,0,14.16-1.12c2.53-.51,5.28-1.84,7.83-2.1,4.2-.42,6.32,1.47,9.43,3.66,6.19,4.36,15.63,11,23.74,9.83,4-.58,6.34-4.76,10.16-4.84,4.26-.08,7.78,3.58,12.08,3.94,7.93.67,13.9-6.77,21.83-6.55,1,0,1-1.47,0-1.5-8.28-.23-15.21,8.37-23.41,6.25-3.4-.88-6.36-3.41-9.9-3.81-4.54-.52-5.66,3.41-9.57,4.72-5.44,1.83-12-2.07-16.59-4.59-4.21-2.32-7.84-5.63-12-7.9-3.33-1.81-6-.61-9.43.35a61.82,61.82,0,0,1-18.31,2.16c-1,0-1,1.47,0,1.5Z"/><path class="cls-4" d="M541,176.45a21.26,21.26,0,0,0,22.92,3c3.58-1.79,5.54-3.51,10-1.56,2.36,1,4.42,2.47,7,3,4.37,1,6.76-.87,10-3.48,2.06-1.67,4.4-3.12,7.17-2.42,3.12.78,3,2.18,4.92,3.78a4.74,4.74,0,0,0,2.94,1.32c6.23.41,6.8-7.92,14.1-6.51,4.6.89,7.83,3,12.73,2.12a18.24,18.24,0,0,0,10.65-6.2c.62-.72-.43-1.79-1.07-1.06a16.88,16.88,0,0,1-13.83,6c-4.12-.25-7.92-3.42-12.08-2.65a7.52,7.52,0,0,0-3.36,1.65c-.9.7-1.5,1.81-2.41,2.46-1.45,1-6.6,1.12-8,.21-2.44-1.54-3.91-3.14-7.14-2.78-4.89.54-7.08,5.89-12.07,6.38s-8.8-5.26-13.65-5c-1.64.07-2.85,1.17-4.17,2a19.38,19.38,0,0,1-23.48-1.3c-.74-.61-1.8.45-1.06,1.06Z"/><path class="cls-4" d="M548,209.85c.53,5.43,7.12,5.23,10.75,2.93,1.91-1.22,3.54-3,5.63-4,3.7-1.67,6.93-.18,9.94,2,3.34,2.38,6.33,5.2,10.5,6,3.82.69,7.61-.35,11.14-1.79,2.43-1,4.66-2.5,7.09-3.44,5.57-2.17,8.62.64,12.77,3.29,3.39,2.15,7.18,5.7,11.48,5.45,5.46-.32,11.66-3.64,16.81-5.38.91-.31.52-1.76-.4-1.45-4.69,1.59-10,4.34-14.91,5-5.93.81-11.51-4.53-16.2-7.46-2.85-1.78-4.65-3-8-1.89-4.35,1.39-8,4.46-12.49,5.65-6,1.57-10.21-.11-14.87-3.59-2.43-1.82-4.93-4-8-4.53a9.42,9.42,0,0,0-6.77,1.59c-1.58,1-2.88,2.36-4.47,3.28-2.14,1.24-8,3.07-8.49-1.63-.09-.95-1.6-1-1.5,0Z"/><path class="cls-4" d="M546.76,251.24c4.1,1.4,8.4,2.85,12.79,2.13,4.13-.67,7.74-6,11.89-4.6,1.5.51,3.75,3.55,5.09,4.54a17.21,17.21,0,0,0,5.66,2.91,10.31,10.31,0,0,0,8.87-1.37c1.33-1,2.18-2.91,3.56-3.7,3.49-2,6.18-.09,9.44.49s6.72-.47,9.86-1.42a51.76,51.76,0,0,1,5.77-1.58c3.75-.67,5.63.43,9.07,1.79,4.42,1.75,8.35-1.36,12.71,0,.93.29,1.32-1.16.4-1.45a9.1,9.1,0,0,0-4.52-.29c-3.72.58-5.93,1.13-9.58-.55a12.78,12.78,0,0,0-7.85-1.08c-4.45.71-8.67,3-13.21,3.19-3.61.13-7-3.31-10.49-2.06-3.94,1.39-5.12,5.9-9.63,6.77-7.12,1.38-10.41-5.36-15.45-8.53-2.14-1.35-3.08-.94-4.74.84-2.7,2.89-5.13,4.77-9.3,4.78-3.42,0-6.76-1.2-10-2.29-.91-.31-1.3,1.14-.39,1.45Z"/><path class="cls-4" d="M546.88,293.73c1.67,1.57,4.79,6.18,7.65,4.67a3,3,0,0,0,1.05-1.22c.45-.71.27-1.6.65-2.3,1.43-2.65,3.43-4.08,6.39-3.63,4.72.71,8.27,4.39,13.23,4.42,4.54,0,8.78-2.1,12.7-4.16,5.4-2.82,10.73-5.43,16.68-6.88a54.17,54.17,0,0,1,10.28-1.52c2.8-.13,5,1.2,7.56,1.77,1.54.34,2.64-.14,4.09,0,2.9.26,3.46,2.18,5.57,3.2,3.74,1.82,7.64-2.94,11.14-2.87a.75.75,0,0,0,0-1.5c-2.09,0-3,.66-4.85,1.35s-4.86,1.61-6.74.42c-.36-.23-.41-1.16-.86-1.44A5.28,5.28,0,0,0,629.5,283c-1.21-.2-1.11.22-2.08.29a14.87,14.87,0,0,1-5.71-.87c-8.1-2.58-18.77.69-26.27,4-5.06,2.21-9.74,5.69-15.1,7.14-4.29,1.17-7.7.39-11.66-1.49a24.85,24.85,0,0,0-5.14-2.15c-2.31-.52-5.16-.3-7,1.34-1.15,1-1,2.15-1.75,3.3-.58.93-1.14,2.33-2.86,1.92-.86-.2-3.33-3.12-4-3.73s-1.77.4-1.06,1.06Z"/><path class="cls-4" d="M656.42,312.55a38.83,38.83,0,0,0-11.69-.2c-2,.29-5.39.58-7,2.06-3.06,2.76.64,4.84,3.18,5.63a36.84,36.84,0,0,0,10.66,1.31c2.54,0,6.88.58,9.19-1,3.51-2.32,1.16-5.36-2-6-.94-.2-1.35,1.24-.4,1.45l.73,3.66a21.22,21.22,0,0,1-3.07.27c-1.19.07-2.38.09-3.56.1-2.81,0-7.87.49-10.31-1-1.1,0-1.57-.73-1.43-2.08-1.09-1.33-1-2,.21-2.07,1-.86,4.17-.9,5.47-1A37.16,37.16,0,0,1,656,314c.94.15,1.35-1.29.4-1.45Z"/><path class="cls-4" d="M637.63,318.41a95.73,95.73,0,0,0,.35,12.33c.23,2.36.17,5.59,1.32,7.74,2.07,3.87,8.77,3.62,12.58,4.09,3.53.43,8.59,1.91,10.19-2.32.88-2.32.57-5.36.66-7.81.15-4.19.11-8.38,0-12.57,0-1-1.54-1-1.5,0,.16,4.79.18,9.58-.05,14.37-.11,2.48.21,6.32-3.06,7.37-1.6.51-4.56-.34-6.21-.54-2.13-.27-6.2-.36-8.21-1.4-3.36-1.73-3.58-3.7-4-7.18a93.26,93.26,0,0,1-.54-14.08c0-1-1.47-1-1.5,0Z"/><path class="cls-4" d="M664.65,326.15c1.24-1.15,3.93-4.86,5.88-3.08,1.39,1.26,1.71,5.26,1.82,7a18.21,18.21,0,0,1-.05,2.86c-.17,1.75-.23,1.93-1.93,2.22-2.33.39-5.22-.13-7.49-.48-.94-.14-1.35,1.3-.4,1.45a42.6,42.6,0,0,0,10.09.38.76.76,0,0,0,.72-.55c1-4.44.88-10-1.65-13.93-2.41-3.8-6.11,1.31-8.06,3.11-.71.66.36,1.71,1.07,1.06Z"/><path class="cls-4" d="M586.4,315.73c.77-3.44,2.56-5.05,5.35-4.84,1.21-.1,2.41-.18,3.62-.24q3.61-.19,7.25-.2c3.51,0,9.64-.65,12.35,2,3.19,3.1-1,5-1.3,7.74-.3,2.57,1.47,5.19,2.42,7.44.74,1.76,1.87,4,1.93,5.94.13,4.25-2.84,4.63-6.3,4.84q-6.6.42-13.23.29c-3.53-.06-9.87.66-13.21-.78-4.37-1.88-2-4.8-1.09-8l2.23-7.46A.75.75,0,0,0,585,322c-1.27,4.23-3.15,8.7-3.91,13.06-.21,1.19-.6,2.49.45,3.47s4.31.9,5.65,1q6.58.58,13.21.63,6.15,0,12.29-.38c1.75-.12,5.28.36,6.72-1.13,2.31-2.38-1-9.39-1.89-11.68-1.76-4.31-2.73-4.24-.14-9.76.16-.34.92-.59.95-1,.11-1.78.9-1.27-.49-3.28-2.77-4-9.14-4-13.39-4s-8.47.07-12.68.43c-1.94.16-4.41.11-6.13,1.23-2.43,1.59-3,5.15,0,6.41.88.37,1.64-.92.76-1.3Z"/></g><path class="cls-5" d="M400.28,404.41h0a19.3,19.3,0,0,1-23.75-9.31l-47.21-91.81a32.35,32.35,0,0,1,17.7-45.2h0a32.35,32.35,0,0,1,42.62,23.24L412.49,382A19.29,19.29,0,0,1,400.28,404.41Z"/><path class="cls-6" d="M349.68,260.93c48.14-17.17,53.24,52.93,57.85,72.34,0,0-26.25,24.41-54.51,27.7,0,0-6.38-11.08-13.25-21.43C322.61,313.68,306.46,276.35,349.68,260.93Z"/><path class="cls-5" d="M443.87,266.2h0a9.75,9.75,0,0,0-12.36,4.45L376.69,374.3a20.71,20.71,0,0,0,10.36,28.81h0a20.71,20.71,0,0,0,27.72-13l34.67-112A9.75,9.75,0,0,0,443.87,266.2Z"/><path class="cls-7" d="M376,260.26l-62.65-36.38L225,265,244,342l1.25,5a272,272,0,0,1,6.57,94.74l-5,46.6H391.68L383,380.92,390.8,287A29.75,29.75,0,0,0,376,260.26Z"/><path class="cls-5" d="M223.24,415.59h0a19.29,19.29,0,0,1-16.77-19.22L207,293.13a32.34,32.34,0,0,1,36.58-31.91h0a32.34,32.34,0,0,1,27.06,40.3l-26.23,99.85A19.28,19.28,0,0,1,223.24,415.59Z"/><path class="cls-8" d="M607.37,414.48h0a18,18,0,0,1-9.92-22.07l34.69-107.14a29,29,0,0,1,39.27-17.64h0a29,29,0,0,1,13.7,40.69l-54.74,98.41A18,18,0,0,1,607.37,414.48Z"/><path class="cls-9" d="M649.84,266.68l60-20L791.29,268l17,16.21-53.2,125.88,17.16,46.34-120.07.71,7.88-36.47L644.89,385a152.77,152.77,0,0,1-9.57-31.76,129.35,129.35,0,0,1,11.91-81.33Z"/><path class="cls-10" d="M666.65,183.9s-6.54,49.4-6.56,50.47c-.07,6.2,33.69,4.76,33.69,4.76L709.88,199Z"/><path class="cls-10" d="M671.5,108.09c-8.68-1.47-42.72,14,7.53,90.9C679,199,703.1,113.46,671.5,108.09Z"/><path class="cls-5" d="M688.35,203.19v52.1s30.87,10.86,56.76-.93V189.31Z"/><path class="cls-11" d="M688.29,240.57l-.11-6.65s46.35-5.16,56.49-34.17C744.67,199.75,735.46,238.45,688.29,240.57Z"/><path class="cls-5" d="M663.6,161.23c0,18.4-5.61,20.17-2.64,31.27,4.17,15.55,11,41.87,26.78,41.87,20.26,0,44.3-9.08,56.7-33.1,5.78-11.2,5.29-16,5.29-36.05,0-11.1.94-12.8-.58-22.85-2.91-19.09-19.57-35.75-39.6-35.75-23.06,0-37.67,7-45.74,27.95C657.71,150.4,663.6,146.33,663.6,161.23Z"/><path class="cls-5" d="M669.43,153.48,664,166.61a15.07,15.07,0,0,0,10.82,20.54h0"/><path class="cls-12" d="M668.71,153.28c-2.22,5.33-5.67,11.14-6.48,16.91a16,16,0,0,0,12.37,17.68c.94.2,1.34-1.25.4-1.45-9.44-2-13.39-11.82-10-20.28,1.66-4.18,3.45-8.31,5.17-12.46.37-.89-1.08-1.28-1.44-.4Z"/><path class="cls-10" d="M680.59,147.52c7.68-3.24,15.49-3.38,23,.61.86.45,1.61-.84.76-1.3-7.83-4.15-16.08-4.16-24.16-.75-.87.37-.49,1.82.4,1.44Z"/><ellipse class="cls-10" cx="691.04" cy="157.45" rx="2.74" ry="3.91"/><path class="cls-10" d="M721.51,163.25c-7.84-4.37-21.21-13.69-31.73-22C674,130.74,663.08,118,672.61,106.62a9.88,9.88,0,0,1,3.63-2.41c146.2-68.18,136,84.94,93.15,139.69,0,0-37.53,6.44-53-3.33,0,0,45.44-82.57,35.23-88.27-11.25-6.29-11,10.95-11,10.95-4.79-.37-16.44-4.14-29-9.92C714.71,157.89,721.51,163.25,721.51,163.25Z"/><path class="cls-5" d="M741.51,178.17c13.6.23,15-25.84,10.43-30.18s-9.06,3.13-10.43,7.55a13.43,13.43,0,0,0-.77,5.61"/><path class="cls-12" d="M685.68,212.81a15.16,15.16,0,0,0,10.78-7.92c.45-.85-.85-1.61-1.3-.76a13.72,13.72,0,0,1-9.88,7.23c-.94.18-.54,1.62.4,1.45Z"/><path class="cls-4" d="M745.11,254.36s-37.51,79.19-38,93c-1.62,49.18,9.28,109.5,9.28,109.5l-22.65.23S665.11,378,662.26,343.75c-1-12.17,26.09-88.46,26.09-88.46Z"/><path class="cls-10" d="M699.66,277.44a1.25,1.25,0,0,0,0-2.5,1.25,1.25,0,0,0,0,2.5Z"/><path class="cls-10" d="M687.8,315.74a1.25,1.25,0,0,0,0-2.5,1.25,1.25,0,0,0,0,2.5Z"/><path class="cls-10" d="M680.39,357.57a1.25,1.25,0,0,0,0-2.5,1.25,1.25,0,0,0,0,2.5Z"/><path class="cls-10" d="M688.78,408.94a1.25,1.25,0,0,0,0-2.5,1.25,1.25,0,0,0,0,2.5Z"/><path class="cls-13" d="M684.23,256.84c-6.32,4.38-12.56,8.9-18.61,13.67-4.47,3.52-8.93,7.44-11,12.92-2.19,5.95-1.09,12.34-.17,18.43,1.43,9.42.94,16.52-3.15,25.24-2.59,5.53-5.31,11.06-5.34,17.3,0,7.12,2.3,14.43,4.42,21.16,4.36,13.81,10.54,27,16.6,40.09,7.42,16.09,14.64,32.31,18.41,49.7.2.94,1.65.54,1.44-.4-7.64-35.28-29.75-65.29-37.92-100.37-1.21-5.23-2.05-10.44-.76-15.74,1.13-4.65,3.54-8.85,5.47-13.19a36.3,36.3,0,0,0,2.77-20.95c-1.45-10.61-3.4-20.26,5-28.63,6.9-6.88,15.56-12.4,23.55-17.93.79-.55,0-1.85-.76-1.3Z"/><path class="cls-13" d="M745.44,257.13c3.41,16.07,7.09,34.69-1.87,49.67-3.56,6-8.87,10.7-12.22,16.8-3.49,6.35-3.41,13-2.44,20.06a207,207,0,0,1,.05,57.23c-2.43,17.67-8.29,35.17-8.86,53,0,1,1.47,1,1.5,0,.59-18.39,6.7-36.5,9.08-54.73a197.26,197.26,0,0,0,0-54.05c-.81-5.64-1.62-11.47.29-17,1.41-4.07,4-7.55,6.69-10.88,4.07-5.14,8.11-10.06,10.37-16.33,5.11-14.19,1.94-29.93-1.09-44.2-.2-1-1.65-.55-1.45.39Z"/><path class="cls-10" d="M686.59,254.44c.13,5.88-2,9.33,5.45,10.28a18.13,18.13,0,0,0,15.13-5.48l-1.28-.53c.1,3.07.31,6.57,2.86,8.68,3,2.5,8.62,2.44,12.26,2.1,9.67-.88,17.91-6.56,24.19-13.67.64-.72-.42-1.78-1.06-1.06-4.75,5.38-10.47,9.87-17.39,12.06A27.73,27.73,0,0,1,716.39,268c-2.92-.21-4.19-.53-6.39-2.59-2.46-2.3-2.5-3.4-2.61-6.74a.76.76,0,0,0-1.28-.53,16.67,16.67,0,0,1-12.43,5.17c-2.26-.07-5.64-.38-6.23-3.34-.28-1.4.68-3.92.64-5.57a.75.75,0,0,0-1.5,0Z"/><path class="cls-5" d="M352.91,417.05h0a9.75,9.75,0,0,0-7.1-11.05L232.53,375.73a20.71,20.71,0,0,0-25.76,16.54h0a20.7,20.7,0,0,0,18.86,24.11l116.94,8.76A9.74,9.74,0,0,0,352.91,417.05Z"/><path class="cls-5" d="M336.7,421.6a22.48,22.48,0,0,0,6.64,6.08c9.12,5.73,22.83,6,24.76,6.19l7.08,3.82c4.24,1.85,7.89.63,9.28-1.56.2-.33.3-.63.5-.95l11,5.26c2.33,1.46,7.78,2.55,10.14-1.2,1.62-2.59.82-3.46-1.71-5l-21.93-12.89L378.72,419c-8.33-5.25-17.15-7.72-23.56-9.59-3.68-1.07-6.61-1.93-8.25-2.93a1.25,1.25,0,0,0-1.35,0C344.87,407,336.3,421.08,336.7,421.6Z"/><path class="cls-8" d="M731.75,415.38h0a18,18,0,0,1-10.18-22L755,285.88a29,29,0,0,1,39-18.11h0a29,29,0,0,1,14.19,40.52l-53.55,99.06A18,18,0,0,1,731.75,415.38Z"/><path class="cls-10" d="M690.4,417.5a1.5,1.5,0,0,0,0-3,1.5,1.5,0,0,0,0,3Z"/><path class="cls-10" d="M701.46,466.82c9.65,0,9.67-15,0-15s-9.67,15,0,15Z"/><line class="cls-14" x1="279.01" y1="139.67" x2="289.7" y2="94.15"/><path class="cls-10" d="M358,159.17s14.72-28.38,5.09-49.76L351.29,130.5Z"/><path class="cls-5" d="M340.51,195.78V247s-31.68,11.76-57.51,0v-65Z"/><path class="cls-11" d="M345.14,222.49c-4.34,7.8-35.22,12.39-62.14-18.28V189.37s22.16,25.34,33.49,29.72C327.07,223.19,345.14,222.49,345.14,222.49Z"/><path class="cls-5" d="M365.2,153.93c0,18.35,5.6,20.12,2.63,31.19-4.15,15.51-11,41.77-26.71,41.77-20.21,0-44.19-9.06-56.56-33-5.77-11.17-5.28-15.93-5.28-36,0-11.07-.95-12.78.58-22.8,2.9-19,19.52-35.66,39.5-35.66,23,0,37.58,7,45.63,27.88C371.08,143.12,365.2,139.07,365.2,153.93Z"/><path class="cls-12" d="M350.51,204.59c-4.1,2.24-11.59-1-13.63-4.81-.46-.85-1.75-.1-1.29.76,2.45,4.58,10.86,8,15.68,5.35.85-.46.09-1.76-.76-1.3Z"/><path class="cls-5" d="M360.63,151.88l5.44,13.1a15,15,0,0,1-10.79,20.49h0"/><path class="cls-12" d="M359.91,152.08c1.72,4.14,3.51,8.26,5.17,12.44,3.34,8.43-.57,18.24-10,20.22-.94.2-.54,1.65.4,1.45a16,16,0,0,0,12.34-17.64c-.8-5.75-4.26-11.56-6.46-16.87-.37-.88-1.82-.49-1.45.4Z"/><path class="cls-10" d="M348.52,134.35c-6.9-6.83-17.76-4.91-24.58.68-.75.61.32,1.67,1.06,1.06,6.16-5.05,16.22-6.86,22.46-.68.69.68,1.75-.38,1.06-1.06Z"/><ellipse class="cls-10" cx="337.37" cy="145.5" rx="2.74" ry="3.9"/><path class="cls-10" d="M300.26,83c-9.8-.55-59.08,5.37-17.26,109.72a44.42,44.42,0,0,0,2.41-21c-2.56-17-10.52-34.52-3.89-27.69,7.8,8,5.88,17,5.88,17l6.59,4.31s19.85-43.76,15.93-58.66c0,0,31.7-2.33,38.07,7.62,0,0,7.59-4.07,11.16,1.8,0,0,14.61-4.68,12.41-16C366,71.49,329.5,87.71,325.65,87.33,303.77,85.15,310,83.56,300.26,83Z"/><path class="cls-5" d="M287.48,170.83c-13.57.23-14.93-25.78-10.41-30.11s9,3.12,10.41,7.53a13.42,13.42,0,0,1,.76,5.59"/><path class="cls-15" d="M162.31,661.35v-214h691V660.87c-17.53,9.73-50.59,2.71-87.57-3.41-29.92-4.94-101.54,36.48-204.94,18S385.58,640,322,660.87,162.31,661.35,162.31,661.35Z"/><ellipse class="cls-15" cx="507.8" cy="446.49" rx="345.49" ry="34.89"/><path class="cls-16" d="M498.86,445.83l58-43.4a3.34,3.34,0,0,1,2.7-.6l112,23.69a3.35,3.35,0,0,1,1.57,5.74L619.44,480.6a3.33,3.33,0,0,1-3.09.78L500,451.75A3.35,3.35,0,0,1,498.86,445.83Z"/><path class="cls-5" d="M596.27,411.62,586,413.89a1.13,1.13,0,0,0-.87,1.28,10.34,10.34,0,0,0,1.12,3.12l-15,2.88a4.69,4.69,0,0,0-3.7,5.45,4.26,4.26,0,0,0,1.36,2.49,5,5,0,0,0-2.3,5,4.7,4.7,0,0,0,5.46,3.71l.28-.06a5,5,0,0,0-.25,2.57,4.7,4.7,0,0,0,5.46,3.7L583,443a4.77,4.77,0,0,0-.25,2.57,4.69,4.69,0,0,0,5.45,3.7l23.6-4.52.22,0,.64-.13c9.23-1.76,12.93-4.1,15.58-5.79a11.88,11.88,0,0,1,4.36-2,1.1,1.1,0,0,0,.86-1.27c-.11-.58-4-20.29-4-20.89l-.05-.29a1.19,1.19,0,0,0-1-.92,11.13,11.13,0,0,1-4.45-1.52c-3.52-1.77-8-4-18-2.05Z"/><path class="cls-8" d="M626.81,411.6l6.66,26.67,108.84-21.74a16.86,16.86,0,0,0,13.34-20.41h0a16.87,16.87,0,0,0-20.95-12.41Z"/><path class="cls-7" d="M280,232.6s28.75,11.59,64.5,0v19.51l-9.1,1.75c-18.44,3.55-55.4-3-55.4-3Z"/><path class="cls-17" d="M246.55,261.32c55.89,6.38,23.51,83.58,18.05,102.77,0,0-34.83,8.48-61.09-2.47,0,0-.16-12.78-1.09-25.16C200.08,305.51,201,256.11,246.55,261.32Z"/><path class="cls-16" d="M618.11,481.83l59.46-32.65a2.74,2.74,0,0,0-.72-5.08l-14.28-3.22Z"/><ellipse class="cls-18" cx="488.56" cy="241.95" rx="7.37" ry="19.43" transform="matrix(0.15, -0.99, 0.99, 0.15, 175.84, 688.54)"/><path class="cls-18" d="M469.35,239l-3.93,37.57s-1,7.15,16.49,9.81,18.33-4.4,18.33-4.4l7.53-37.13s-1.11,7.28-20.32,4.36C468.59,246.37,469.35,239,469.35,239Z"/><path class="cls-18" d="M465.47,274.11c-10.45-6.32-9.59-17.91-9.59-17.91l1.34-8.77a3.56,3.56,0,0,1,4.07-3l7.2.79.35-3.19-8.15-.93a5.37,5.37,0,0,0-6.13,4.51l-1.27,8.3a23.59,23.59,0,0,0,1.55,12.81,21.05,21.05,0,0,0,3.49,5.62,28.62,28.62,0,0,0,6.79,5.14Z"/><path class="cls-19" d="M497.61,247.62c10.48-1.46,17.53-15.73,8.48-17.87-6.32-1.5-11,3.7-10.95,9.18.05,11.92-19.7-5.9-22.12,2.2C472.21,243.85,488.74,248.85,497.61,247.62Z"/><path class="cls-5" d="M445.38,284.33a1.06,1.06,0,0,0,1.45.2,11.8,11.8,0,0,1,4.25-1.82c2.93-.82,6.93-1.94,14.16-7.39l9.21-6.95a4.48,4.48,0,0,0,.88-6.29,4.39,4.39,0,0,0-2.15-1.59,4.5,4.5,0,0,0,.08-5.51,4.46,4.46,0,0,0-2.14-1.58,4.53,4.53,0,0,0,.08-5.52,4.59,4.59,0,0,0-5.23-1.42,4,4,0,0,0-.88-2.54,4.48,4.48,0,0,0-6.29-.88l-5.07,3.83a3.38,3.38,0,0,0-1.58,0c-1.72.35-2.78,1.59-4,2.95-.52.56-1.16,1.22-1.85,1.91l-.05,0a36,36,0,0,0-4.14,6,45.17,45.17,0,0,1-8.82,10.6,1.11,1.11,0,0,0-.11,1.46C433.56,270.18,445.05,283.89,445.38,284.33Z"/><ellipse class="cls-18" cx="527.85" cy="277.17" rx="7.37" ry="19.43" transform="translate(243.39 801.13) rotate(-89.21)"/><path class="cls-18" d="M547.28,277.44,545,315.14s-.2,7.22-17.87,7-17.37-7.35-17.37-7.35l-1.33-37.86s-.1,7.37,19.33,7.64C546.83,284.8,547.28,277.44,547.28,277.44Z"/><path class="cls-20" d="M545.16,313.17s2.39-1.7,4.89-3.77a18.35,18.35,0,0,0,3.83-4.36,20.79,20.79,0,0,0,3.19-10.87l.1-7.38a4.74,4.74,0,0,0-4.66-4.79l-5.46-.07-.15,2.81,4.61.06A3.14,3.14,0,0,1,554.6,288l-.11,7.79s0,7.75-9.15,14.42Z"/><path class="cls-19" d="M537.86,281.44c2.55-.74-1.41-8.74-11.79-7.64-18.64,2,5.5-8.73-6.66-14.88-6.26-3.17-12.95,10-8,18S536.46,281.85,537.86,281.44Z"/><path class="cls-5" d="M577.79,308.11a1.1,1.1,0,0,0-.1-1.46c-3.63-3-7.5-9.33-9.66-12.77a37.16,37.16,0,0,0-4.15-6l0,0c-.69-.69-1.32-1.34-1.85-1.91-1.22-1.36-2.28-2.59-4-2.94a3.38,3.38,0,0,0-1.58,0l-5.07-3.83a4.49,4.49,0,0,0-6.29.88,4.13,4.13,0,0,0-.88,2.54,4.59,4.59,0,0,0-5.23,1.43,4.52,4.52,0,0,0,.08,5.51,4.46,4.46,0,0,0-2.14,1.58,4.52,4.52,0,0,0,.08,5.52,4.53,4.53,0,0,0-1.27,7.87l9.21,7c7.23,5.45,11.23,6.57,14.16,7.39a12,12,0,0,1,4.25,1.83,1.06,1.06,0,0,0,1.45-.21C565.08,320,577.41,308.51,577.79,308.11Z"/><path class="cls-8" d="M593.81,407.69,559,318.86l19.43-15L626.26,400a16.47,16.47,0,0,1,1.51,10.69l-11-1.87-6.15.28-5.24.86Z"/><path class="cls-6" d="M280,239.38S310.05,255,344.5,242l2.24,1.3S318.2,260.94,280,239.38Z"/><path class="cls-18" d="M453.29,253.91a23.59,23.59,0,0,0,1.55,12.81,21.05,21.05,0,0,0,3.49,5.62,28.62,28.62,0,0,0,6.79,5.14l.35-3.37c-10.45-6.32-9.59-17.91-9.59-17.91l.48-3.13"/><path class="cls-5" d="M453.73,246.87c3,1,5,10.34,5.24,14,0,0-4.2,1.82-7.07-3.56a11.67,11.67,0,0,1-1,5.11"/><path class="cls-5" d="M473.18,260.49s-13.53,7.16-11.19,11c2.57,4.17,12.66-2.19,13.73-4.59S473.18,260.49,473.18,260.49Z"/><path class="cls-5" d="M471.12,253.4s-16.53,8.46-13.8,13,15.86-5.93,15.86-5.93S475.7,256.65,471.12,253.4Z"/><path class="cls-5" d="M466,246.46s-14.16,11.2-11.53,14.7c3.08,4.11,17.91-7,17.64-10.28A4.91,4.91,0,0,0,466,246.46Z"/><path class="cls-21" d="M553.82,289.37l.48,3.13s.86,11.6-9.6,17.91l.36,3.38a28.93,28.93,0,0,0,6.79-5.14,21.25,21.25,0,0,0,3.49-5.63,23.64,23.64,0,0,0,1.55-12.8"/><path class="cls-5" d="M556.45,283.17c-3,1-5,10.35-5.24,14,0,0,4.2,1.82,7.07-3.56a11.67,11.67,0,0,0,1,5.11"/><path class="cls-5" d="M537,296.8s13.54,7.16,11.2,11c-2.57,4.16-12.66-2.2-13.73-4.6S537,296.8,537,296.8Z"/><path class="cls-5" d="M539.06,289.7s16.53,8.47,13.79,13S537,296.8,537,296.8,534.48,293,539.06,289.7Z"/><path class="cls-5" d="M544.21,282.76s14.16,11.21,11.53,14.71c-3.08,4.1-17.91-7.05-17.65-10.29A4.92,4.92,0,0,1,544.21,282.76Z"/><line class="cls-15" x1="751.24" y1="650.73" x2="751.24" y2="471.25"/><line class="cls-15" x1="349.44" y1="647.17" x2="349.44" y2="487.51"/></g></g></svg>