<svg id="Layer_1" data-name="Layer 1" xmlns="http://www.w3.org/2000/svg" xmlns:xlink="http://www.w3.org/1999/xlink" viewBox="0 0 1617 784.65"><defs><style>.cls-1{fill:#1d475c;}.cls-2{fill:none;}.cls-3{clip-path:url(#clip-path);}.cls-4{opacity:0.7;}.cls-5{opacity:0.71;}.cls-6{opacity:0.75;}.cls-7{opacity:0.92;}.cls-8{clip-path:url(#clip-path-2);}.cls-11,.cls-9{opacity:0.5;}.cls-9{fill:url(#linear-gradient);}.cls-10{clip-path:url(#clip-path-3);}.cls-11{fill:url(#linear-gradient-2);}.cls-12{opacity:0.34;}.cls-13{fill:url(#New_Gradient_Swatch);}</style><clipPath id="clip-path"><rect class="cls-1" x="-1" y="0.27" width="1617" height="784.65"/></clipPath><clipPath id="clip-path-2"><polygon class="cls-2" points="2632.63 675.38 2632.19 -20.95 -276.87 -276.69 -277.09 419.68 2632.63 675.38"/></clipPath><linearGradient id="linear-gradient" x1="362.92" y1="682.88" x2="399.31" y2="682.88" gradientTransform="matrix(-80.23, -19.45, 0, 80.23, 31652.26, -47175.24)" gradientUnits="userSpaceOnUse"><stop offset="0" stop-color="#597895"/><stop offset="1" stop-color="#1d475c"/></linearGradient><clipPath id="clip-path-3"><polygon class="cls-2" points="3131.66 21.28 1947.49 -303.64 154.43 914.92 1338.35 1240.16 3131.66 21.28"/></clipPath><linearGradient id="linear-gradient-2" x1="345.8" y1="700.93" x2="376.56" y2="700.93" gradientTransform="matrix(-54.66, 61.87, 70.95, 37.46, -28392.69, -48087.68)" xlink:href="#linear-gradient"/><linearGradient id="New_Gradient_Swatch" x1="-141.41" y1="494.82" x2="1160.22" y2="494.82" gradientTransform="matrix(1, 0, 0, 1, 0, 0)" xlink:href="#linear-gradient"/></defs><title>Artboard 1</title><rect class="cls-1" x="-1" y="0.27" width="1617" height="784.65"/><g class="cls-3"><g class="cls-4"><polygon class="cls-1" points="348.16 886.49 348.16 214.41 -1561.21 47.88 -1561.21 720.4 348.16 886.49"/></g><g class="cls-5"><polygon class="cls-1" points="3158.15 794.26 3157.73 121.74 348.16 -125.25 347.95 547.3 3158.15 794.26"/></g><g class="cls-6"><polygon class="cls-1" points="3157.62 -32.84 3158.01 639.66 347.95 886.65 347.95 214.41 3157.62 -32.84"/></g><g class="cls-7"><polygon class="cls-1" points="348.16 -125.25 347.6 546.63 -1561.21 720.45 -1561.21 47.37 348.16 -125.25"/></g><g class="cls-5"><g class="cls-8"><polygon class="cls-9" points="2525.18 1042.25 -384.54 675.38 -384.54 -643.56 2525.18 -276.69 2525.18 1042.25"/></g></g><g class="cls-5"><g class="cls-10"><polygon class="cls-11" points="3705.27 241.99 1722.94 1408.97 -519.62 793.15 1462.7 -373.82 3705.27 241.99"/></g></g><g class="cls-12"><polygon class="cls-13" points="-141.41 -29.01 1160.22 904.37 -141.41 1018.64 -141.41 -29.01"/></g></g></svg>