<svg xmlns="http://www.w3.org/2000/svg" viewBox="0 0 139.5 40.48"><defs><style>.cls-1{fill:#1d475c;}</style></defs><title>Asset 1</title><g id="Layer_2" data-name="Layer 2"><g id="artwork"><path class="cls-1" d="M137.8,40.21a1.18,1.18,0,0,0,.77-1.09,1.14,1.14,0,0,0-.61-1.07,6.55,6.55,0,0,0-1.8-.48,4.07,4.07,0,0,1-.95-.24.54.54,0,0,1-.34-.5c0-.46.47-.69,1.4-.69a2.51,2.51,0,0,1,1.08.18c.26.14.41.46.44,1h.68c0-1.19-.75-1.78-2.2-1.78s-2.09.44-2.09,1.32a1.14,1.14,0,0,0,.75,1.07,6.49,6.49,0,0,0,1.28.35c.53.1.87.18,1,.22a1.37,1.37,0,0,1,.51.22.57.57,0,0,1,.14.42.63.63,0,0,1-.46.58,2.59,2.59,0,0,1-1,.17c-1.13,0-1.69-.36-1.69-1.08v-.29H134v.31a1.41,1.41,0,0,0,.79,1.35,3.88,3.88,0,0,0,3,.06m-5.67-4v-.63h-4.42v.63h1.87v4.25h.69V36.19Zm-6.47,4.25V35.56H125v3.76c-.25-.3-.8-.91-1.64-1.85-.69-.77-1.24-1.41-1.66-1.91h-.61v4.88h.69V36.65L125,40.44Zm-8.28-2.07H115.6l.9-1.8Zm1.76,2.07-2.36-4.88h-.54l-2.45,4.88h.78l.71-1.44h2.4l.7,1.44Zm-6.86-4.25v-.63h-4.43v.63h1.87v4.25h.69V36.19Zm-6.47,4.25V35.56h-.69v3.76l-1.64-1.85c-.69-.77-1.24-1.41-1.66-1.91h-.62v4.88h.69V36.65l3.3,3.79Zm-7-1.87v-3h-.69v3a1.15,1.15,0,0,1-.37,1,2.35,2.35,0,0,1-2.37,0,1.24,1.24,0,0,1-.37-1v-3h-.69v3q0,1.92,2.25,1.92a2.63,2.63,0,0,0,1.64-.43,1.79,1.79,0,0,0,.6-1.48M91.32,38a1.76,1.76,0,0,1-.54,1.36,2.58,2.58,0,0,1-3,0A1.77,1.77,0,0,1,87.21,38a1.68,1.68,0,0,1,.53-1.34,2.22,2.22,0,0,1,1.51-.46,2.27,2.27,0,0,1,1.53.46A1.68,1.68,0,0,1,91.32,38M92,38a2.22,2.22,0,0,0-.76-1.8,3.47,3.47,0,0,0-4,0,2.25,2.25,0,0,0-.75,1.8,2.32,2.32,0,0,0,.73,1.81,2.93,2.93,0,0,0,2,.66,2.9,2.9,0,0,0,2-.66A2.31,2.31,0,0,0,92,38m-7.62-1.43a2.74,2.74,0,0,0-2.3-1.07,2.92,2.92,0,0,0-2,.68A2.36,2.36,0,0,0,79.3,38,2.29,2.29,0,0,0,80,39.82a3.16,3.16,0,0,0,4.3-.41l-.59-.36a2.15,2.15,0,0,1-.76.62,2.26,2.26,0,0,1-1,.19,2.1,2.1,0,0,1-1.48-.5A1.77,1.77,0,0,1,80,38a1.74,1.74,0,0,1,.57-1.37,2.19,2.19,0,0,1,1.53-.5,2.45,2.45,0,0,1,1,.18,1.92,1.92,0,0,1,.71.61Zm-7.33,0a2.72,2.72,0,0,0-2.29-1.07,3,3,0,0,0-2,.68A2.35,2.35,0,0,0,72,38a2.26,2.26,0,0,0,.74,1.79A3.14,3.14,0,0,0,77,39.41l-.59-.36a2.06,2.06,0,0,1-.76.62,2.21,2.21,0,0,1-1,.19,2.11,2.11,0,0,1-1.49-.5A1.8,1.8,0,0,1,72.67,38a1.73,1.73,0,0,1,.56-1.37,2.21,2.21,0,0,1,1.54-.5,2.4,2.4,0,0,1,1,.18,1.87,1.87,0,0,1,.72.61Zm-8.71,1.79H66.56l.91-1.8Zm1.75,2.07-2.36-4.88H67.2l-2.44,4.88h.77L66.25,39h2.4l.69,1.44ZM57.56,38A1.63,1.63,0,0,1,57,39.35a2.41,2.41,0,0,1-1.59.46H54.23V36.19h1.43a2,2,0,0,1,1.45.47A1.83,1.83,0,0,1,57.56,38m.69,0a2.41,2.41,0,0,0-.65-1.79,2.64,2.64,0,0,0-1.94-.66H53.54v4.88h1.85a3.17,3.17,0,0,0,2-.62A2.18,2.18,0,0,0,58.25,38M51.4,40.44v-.63H48v-1.6h3v-.62H48v-1.4h3.35v-.63h-4v4.88Zm-7.15-3.51a.7.7,0,0,1-.37.64,1.85,1.85,0,0,1-.92.19H41.25V36.19h1.83c.78,0,1.17.24,1.17.74m.69,0c0-.9-.62-1.35-1.87-1.35H40.56v4.88h.69v-2H43c.79,0,1.18.25,1.18.75v1.3h.69V39.12a1.19,1.19,0,0,0-.56-1.07,1.22,1.22,0,0,0,.63-1.14m-6.53,3.53v-.63H35v-1.6h3v-.62H35v-1.4h3.35v-.63h-4v4.88ZM32.3,36.19v-.63H27.87v.63h1.87v4.25h.69V36.19Zm-7.11.74a.7.7,0,0,1-.37.64,1.85,1.85,0,0,1-.92.19H22.19V36.19H24c.78,0,1.17.24,1.17.74m.69,0c0-.9-.62-1.35-1.88-1.35H21.49v4.88h.7v-2h1.75c.79,0,1.18.25,1.18.75v1.3h.69V39.12a1.19,1.19,0,0,0-.56-1.07,1.22,1.22,0,0,0,.63-1.14m-8.06,1.46H16l.9-1.8Zm1.76,2.07-2.36-4.88h-.54l-2.45,4.88H15L15.72,39h2.4l.7,1.44Zm-7.25,0V35.56h-.69v2H8.41v-2H7.72v4.88h.69V38.21h3.23v2.23Zm-6.9-3.86a2.71,2.71,0,0,0-2.29-1.07,3,3,0,0,0-2,.68A2.35,2.35,0,0,0,.35,38a2.29,2.29,0,0,0,.74,1.79,2.85,2.85,0,0,0,2,.66,2.84,2.84,0,0,0,2.31-1.07l-.59-.36a2.06,2.06,0,0,1-.76.62,2.21,2.21,0,0,1-1,.19,2.09,2.09,0,0,1-1.48-.5,2,2,0,0,1,0-2.72,2.21,2.21,0,0,1,1.54-.5,2.37,2.37,0,0,1,1,.18,1.87,1.87,0,0,1,.72.61Z"/><path class="cls-1" d="M53.26,24.33a6.37,6.37,0,0,1-4.74,2,6.47,6.47,0,0,1-4.81-2,6.76,6.76,0,0,1-1.94-4.92,6.79,6.79,0,0,1,2-4.91,6.48,6.48,0,0,1,4.81-2,6.2,6.2,0,0,1,4.68,2.06,7,7,0,0,1,1.94,5,6.68,6.68,0,0,1-1.92,4.85m4-13.73A11.74,11.74,0,0,0,48.61,7a12.13,12.13,0,0,0-8.87,3.61,11.91,11.91,0,0,0-3.64,8.79,11.85,11.85,0,0,0,3.64,8.75,12,12,0,0,0,8.78,3.6,11.89,11.89,0,0,0,8.71-3.6,11.86,11.86,0,0,0,3.62-8.7A12.11,12.11,0,0,0,57.3,10.6"/><path class="cls-1" d="M133.17,23.47A6,6,0,0,1,128,26.3a6.49,6.49,0,0,1-4.85-2,6.85,6.85,0,0,1-2-5,6.75,6.75,0,0,1,1.93-4.93,6.4,6.4,0,0,1,4.8-2,5.71,5.71,0,0,1,5.27,3.1h6.33a11.26,11.26,0,0,0-4.32-6.11,12.35,12.35,0,0,0-19.68,10,12,12,0,0,0,3.64,8.76,12.26,12.26,0,0,0,20.36-4.64Z"/><path class="cls-1" d="M113,7.75h-5.67V31H113ZM113,0h-5.67V5.14H113Z"/><path class="cls-1" d="M96.89,24.37a6.31,6.31,0,0,1-4.76,2,6.76,6.76,0,0,1-4.9-2,6.61,6.61,0,0,1-2-4.9A6.86,6.86,0,0,1,87,14.67a6.54,6.54,0,0,1,4.56-2.14q.75-.09.48-.09a6.41,6.41,0,0,1,4.85,2,6.89,6.89,0,0,1,1.88,5,6.93,6.93,0,0,1-1.92,5m7.28-16.62H99v3.19A9.65,9.65,0,0,0,91.11,7a10.78,10.78,0,0,0-8.24,3.58,12.56,12.56,0,0,0-3.32,8.86,12.49,12.49,0,0,0,3.23,8.78,10.5,10.5,0,0,0,8.06,3.52A9.75,9.75,0,0,0,99,27.89V31h5.22Z"/><path class="cls-1" d="M74.11,17.8l-4.7-1.6a1.89,1.89,0,0,1-1.5-1.81,1.77,1.77,0,0,1,.64-1.4,2.5,2.5,0,0,1,1.66-.55,1.85,1.85,0,0,1,2,1.73h5.49a8.15,8.15,0,0,0-2.41-5.23A7.35,7.35,0,0,0,70.08,7,7.76,7.76,0,0,0,64.59,9.1a6.66,6.66,0,0,0-2.26,5.07,6,6,0,0,0,1.94,4.56,16.23,16.23,0,0,0,6,2.92c1.65.5,2.47,1.3,2.47,2.39A2.15,2.15,0,0,1,72,25.66a2.46,2.46,0,0,1-1.74.68,2.83,2.83,0,0,1-1.94-.75,3.07,3.07,0,0,1-1-1.9H61.53A8.49,8.49,0,0,0,64,29.53a7.92,7.92,0,0,0,5.77,2.21,8.52,8.52,0,0,0,6.09-2.32,7.53,7.53,0,0,0,2.46-5.69,5.76,5.76,0,0,0-4.25-5.93"/><path class="cls-1" d="M35.26,16.91A10.1,10.1,0,0,0,32.72,9.7,8.92,8.92,0,0,0,25.92,7a8.81,8.81,0,0,0-7.48,3.55,11.62,11.62,0,0,0-3.23-2.77A7.84,7.84,0,0,0,11.58,7a6.69,6.69,0,0,0-6,2.84V7.75H0V31H6V18a6.12,6.12,0,0,1,1.17-4,3.94,3.94,0,0,1,3.24-1.44,4.18,4.18,0,0,1,3.3,1.39A5.43,5.43,0,0,1,15,17.65V31h5.67V19.53a10.57,10.57,0,0,1,.84-4.84,4,4,0,0,1,3.79-2.16c2.88,0,4.31,1.85,4.31,5.55V31h5.67Z"/></g></g></svg>